<?xml version="1.0" encoding="UTF-8" standalone="no"?>
<!DOCTYPE svg PUBLIC "-//W3C//DTD SVG 1.1//EN"
 "http://www.w3.org/Graphics/SVG/1.1/DTD/svg11.dtd">
<!-- Generated by graphviz version 2.43.0 (0)
 -->
<!-- Title: OFI Pages: 1 -->
<svg width="1038pt" height="375pt"
 viewBox="0.00 0.00 1037.71 375.00" xmlns="http://www.w3.org/2000/svg" xmlns:xlink="http://www.w3.org/1999/xlink">
<g id="graph0" class="graph" transform="scale(1 1) rotate(0) translate(4 371)">
<title>OFI</title>
<!-- platform:olx -->
<g id="node1" class="node">
<title>platform:olx</title>
<polygon fill="#1d4ed8" stroke="#1d4ed8" points="60,-283 6,-283 6,-247 60,-247 60,-283"/>
<text text-anchor="middle" x="33" y="-262.2" font-family="Helvetica,sans-Serif" font-size="11.00" fill="white">olx</text>
</g>
<!-- vector:whatsapp -->
<g id="node3" class="node">
<title>vector:whatsapp</title>
<polygon fill="#0891b2" stroke="#0891b2" points="184,-283 114,-283 114,-247 184,-247 184,-283"/>
<text text-anchor="middle" x="149" y="-262.2" font-family="Helvetica,sans-Serif" font-size="11.00" fill="white">whatsapp</text>
</g>
<!-- platform:olx&#45;&gt;vector:whatsapp -->
<g id="edge1" class="edge">
<title>platform:olx&#45;&gt;vector:whatsapp</title>
<path fill="none" stroke="#94a3b8" stroke-width="2" d="M60.15,-265C72.95,-265 88.73,-265 103.36,-265"/>
<polygon fill="#94a3b8" stroke="#94a3b8" stroke-width="2" points="103.75,-268.5 113.75,-265 103.75,-261.5 103.75,-268.5"/>
</g>
<!-- technique:Marketplace redirect phishing with fake payment confirmation -->
<g id="node2" class="node">
<title>technique:Marketplace redirect phishing with fake payment confirmation</title>
<ellipse fill="#b91c1c" stroke="#b91c1c" cx="519.26" cy="-187" rx="215.76" ry="18"/>
<text text-anchor="middle" x="519.26" y="-184.2" font-family="Helvetica,sans-Serif" font-size="11.00" fill="white">Marketplace redirect phishing with fake payment confirmation</text>
</g>
<!-- payment:card -->
<g id="node4" class="node">
<title>payment:card</title>
<polygon fill="#15803d" stroke="#15803d" points="942.12,-86 907.39,-68 942.12,-50 976.86,-68 942.12,-86"/>
<text text-anchor="middle" x="942.12" y="-65.2" font-family="Helvetica,sans-Serif" font-size="11.00" fill="white">card</text>
</g>
<!-- technique:Marketplace redirect phishing with fake payment confirmation&#45;&gt;payment:card -->
<g id="edge2" class="edge">
<title>technique:Marketplace redirect phishing with fake payment confirmation&#45;&gt;payment:card</title>
<path fill="none" stroke="#94a3b8" stroke-width="2" d="M735.14,-187.67C763.87,-182.04 792.15,-173.25 817.53,-160 840.18,-148.18 834.8,-132.24 854.53,-116 872.33,-101.34 895.25,-88.86 913.04,-80.31"/>
<polygon fill="#94a3b8" stroke="#94a3b8" stroke-width="2" points="914.75,-83.37 922.33,-75.97 911.79,-77.03 914.75,-83.37"/>
</g>
<!-- payment:transfer_bancar -->
<g id="node5" class="node">
<title>payment:transfer_bancar</title>
<polygon fill="#15803d" stroke="#15803d" points="942.12,-248 854.43,-230 942.12,-212 1029.81,-230 942.12,-248"/>
<text text-anchor="middle" x="942.12" y="-227.2" font-family="Helvetica,sans-Serif" font-size="11.00" fill="white">transfer_bancar</text>
</g>
<!-- technique:Marketplace redirect phishing with fake payment confirmation&#45;&gt;payment:transfer_bancar -->
<g id="edge3" class="edge">
<title>technique:Marketplace redirect phishing with fake payment confirmation&#45;&gt;payment:transfer_bancar</title>
<path fill="none" stroke="#94a3b8" stroke-width="2" d="M672.75,-199.72C719.26,-203.91 770.52,-208.82 817.53,-214 837.58,-216.21 859.42,-218.93 879.09,-221.5"/>
<polygon fill="#94a3b8" stroke="#94a3b8" stroke-width="2" points="878.78,-224.99 889.16,-222.83 879.7,-218.05 878.78,-224.99"/>
</g>
<!-- vector:whatsapp&#45;&gt;technique:Marketplace redirect phishing with fake payment confirmation -->
<g id="edge4" class="edge">
<title>vector:whatsapp&#45;&gt;technique:Marketplace redirect phishing with fake payment confirmation</title>
<path fill="none" stroke="#94a3b8" stroke-width="2" d="M169.13,-246.89C182.55,-235.36 201.52,-221.26 221,-214 246.08,-204.65 273.15,-197.98 300.37,-193.28"/>
<polygon fill="#94a3b8" stroke="#94a3b8" stroke-width="2" points="301.1,-196.7 310.4,-191.63 299.97,-189.8 301.1,-196.7"/>
</g>
<!-- technique:Job&#45;offer smishing funneling into multi&#45;platform pyramid/crypto scheme -->
<g id="node7" class="node">
<title>technique:Job&#45;offer smishing funneling into multi&#45;platform pyramid/crypto scheme</title>
<ellipse fill="#b91c1c" stroke="#b91c1c" cx="519.26" cy="-241" rx="246.6" ry="18"/>
<text text-anchor="middle" x="519.26" y="-238.2" font-family="Helvetica,sans-Serif" font-size="11.00" fill="white">Job&#45;offer smishing funneling into multi&#45;platform pyramid/crypto scheme</text>
</g>
<!-- vector:whatsapp&#45;&gt;technique:Job&#45;offer smishing funneling into multi&#45;platform pyramid/crypto scheme -->
<g id="edge5" class="edge">
<title>vector:whatsapp&#45;&gt;technique:Job&#45;offer smishing funneling into multi&#45;platform pyramid/crypto scheme</title>
<path fill="none" stroke="#94a3b8" stroke-width="2" d="M184.31,-262.76C217.43,-260.61 270.37,-257.16 324.43,-253.63"/>
<polygon fill="#94a3b8" stroke="#94a3b8" stroke-width="2" points="324.78,-257.12 334.53,-252.97 324.32,-250.13 324.78,-257.12"/>
</g>
<!-- technique:Account&#45;takeover smishing via emotional pretext and 2FA code phishing -->
<g id="node10" class="node">
<title>technique:Account&#45;takeover smishing via emotional pretext and 2FA code phishing</title>
<ellipse fill="#b91c1c" stroke="#b91c1c" cx="519.26" cy="-349" rx="250.31" ry="18"/>
<text text-anchor="middle" x="519.26" y="-346.2" font-family="Helvetica,sans-Serif" font-size="11.00" fill="white">Account&#45;takeover smishing via emotional pretext and 2FA code phishing</text>
</g>
<!-- vector:whatsapp&#45;&gt;technique:Account&#45;takeover smishing via emotional pretext and 2FA code phishing -->
<g id="edge6" class="edge">
<title>vector:whatsapp&#45;&gt;technique:Account&#45;takeover smishing via emotional pretext and 2FA code phishing</title>
<path fill="none" stroke="#94a3b8" stroke-width="2" d="M166.48,-283.02C179.79,-296.28 199.74,-313.42 221,-322 239.48,-329.46 259.12,-335.28 279.15,-339.8"/>
<polygon fill="#94a3b8" stroke="#94a3b8" stroke-width="2" points="278.49,-343.24 289.01,-341.91 279.96,-336.39 278.49,-343.24"/>
</g>
<!-- technique:Fake trading platform with simulated profits, promoted via private social&#45;media groups -->
<g id="node15" class="node">
<title>technique:Fake trading platform with simulated profits, promoted via private social&#45;media groups</title>
<ellipse fill="#b91c1c" stroke="#b91c1c" cx="519.26" cy="-295" rx="298.03" ry="18"/>
<text text-anchor="middle" x="519.26" y="-292.2" font-family="Helvetica,sans-Serif" font-size="11.00" fill="white">Fake trading platform with simulated profits, promoted via private social&#45;media groups</text>
</g>
<!-- vector:whatsapp&#45;&gt;technique:Fake trading platform with simulated profits, promoted via private social&#45;media groups -->
<g id="edge7" class="edge">
<title>vector:whatsapp&#45;&gt;technique:Fake trading platform with simulated profits, promoted via private social&#45;media groups</title>
<path fill="none" stroke="#94a3b8" stroke-width="2" d="M184.31,-267.8C218.68,-270.59 274.39,-275.13 330.54,-279.71"/>
<polygon fill="#94a3b8" stroke="#94a3b8" stroke-width="2" points="330.41,-283.21 340.66,-280.53 330.98,-276.23 330.41,-283.21"/>
</g>
<!-- platform:sms -->
<g id="node6" class="node">
<title>platform:sms</title>
<polygon fill="#1d4ed8" stroke="#1d4ed8" points="60,-227 6,-227 6,-191 60,-191 60,-227"/>
<text text-anchor="middle" x="33" y="-206.2" font-family="Helvetica,sans-Serif" font-size="11.00" fill="white">sms</text>
</g>
<!-- platform:sms&#45;&gt;vector:whatsapp -->
<g id="edge8" class="edge">
<title>platform:sms&#45;&gt;vector:whatsapp</title>
<path fill="none" stroke="#94a3b8" stroke-width="3" d="M60.15,-221.85C73.33,-228.32 89.65,-236.34 104.63,-243.7"/>
<polygon fill="#94a3b8" stroke="#94a3b8" stroke-width="3" points="103.23,-246.91 113.75,-248.18 106.32,-240.62 103.23,-246.91"/>
<text text-anchor="middle" x="90" y="-240.8" font-family="Helvetica,sans-Serif" font-size="9.00">2x</text>
</g>
<!-- vector:telegram -->
<g id="node8" class="node">
<title>vector:telegram</title>
<polygon fill="#0891b2" stroke="#0891b2" points="182,-224 116,-224 116,-188 182,-188 182,-224"/>
<text text-anchor="middle" x="149" y="-203.2" font-family="Helvetica,sans-Serif" font-size="11.00" fill="white">telegram</text>
</g>
<!-- platform:sms&#45;&gt;vector:telegram -->
<g id="edge9" class="edge">
<title>platform:sms&#45;&gt;vector:telegram</title>
<path fill="none" stroke="#94a3b8" stroke-width="2" d="M60.15,-208.31C73.61,-207.96 90.36,-207.52 105.6,-207.12"/>
<polygon fill="#94a3b8" stroke="#94a3b8" stroke-width="2" points="105.96,-210.61 115.86,-206.85 105.77,-203.61 105.96,-210.61"/>
</g>
<!-- technique:Job&#45;offer smishing funneling into multi&#45;platform pyramid/crypto scheme&#45;&gt;payment:transfer_bancar -->
<g id="edge11" class="edge">
<title>technique:Job&#45;offer smishing funneling into multi&#45;platform pyramid/crypto scheme&#45;&gt;payment:transfer_bancar</title>
<path fill="none" stroke="#94a3b8" stroke-width="2" d="M751.62,-234.95C788,-234 823.54,-233.07 853.83,-232.28"/>
<polygon fill="#94a3b8" stroke="#94a3b8" stroke-width="2" points="853.99,-235.78 863.89,-232.02 853.8,-228.78 853.99,-235.78"/>
</g>
<!-- payment:crypto -->
<g id="node9" class="node">
<title>payment:crypto</title>
<polygon fill="#15803d" stroke="#15803d" points="942.12,-161 897.68,-143 942.12,-125 986.57,-143 942.12,-161"/>
<text text-anchor="middle" x="942.12" y="-140.2" font-family="Helvetica,sans-Serif" font-size="11.00" fill="white">crypto</text>
</g>
<!-- technique:Job&#45;offer smishing funneling into multi&#45;platform pyramid/crypto scheme&#45;&gt;payment:crypto -->
<g id="edge10" class="edge">
<title>technique:Job&#45;offer smishing funneling into multi&#45;platform pyramid/crypto scheme&#45;&gt;payment:crypto</title>
<path fill="none" stroke="#94a3b8" stroke-width="2" d="M736.37,-232.42C764.05,-228.11 791.71,-222.16 817.53,-214 854.98,-202.17 893.5,-177.71 917.37,-160.84"/>
<polygon fill="#94a3b8" stroke="#94a3b8" stroke-width="2" points="919.7,-163.47 925.77,-154.78 915.61,-157.79 919.7,-163.47"/>
</g>
<!-- vector:telegram&#45;&gt;technique:Job&#45;offer smishing funneling into multi&#45;platform pyramid/crypto scheme -->
<g id="edge12" class="edge">
<title>vector:telegram&#45;&gt;technique:Job&#45;offer smishing funneling into multi&#45;platform pyramid/crypto scheme</title>
<path fill="none" stroke="#94a3b8" stroke-width="2" d="M182.15,-209.77C194.31,-211.16 208.29,-212.71 221,-214 262.64,-218.24 307.6,-222.49 349.64,-226.32"/>
<polygon fill="#94a3b8" stroke="#94a3b8" stroke-width="2" points="349.41,-229.82 359.69,-227.24 350.05,-222.85 349.41,-229.82"/>
</g>
<!-- technique:Account&#45;takeover smishing via emotional pretext and 2FA code phishing&#45;&gt;payment:transfer_bancar -->
<g id="edge13" class="edge">
<title>technique:Account&#45;takeover smishing via emotional pretext and 2FA code phishing&#45;&gt;payment:transfer_bancar</title>
<path fill="none" stroke="#94a3b8" stroke-width="2" d="M747.24,-341.49C771.4,-336.84 795.26,-330.51 817.53,-322 857.93,-306.55 896.61,-273.91 919.62,-251.96"/>
<polygon fill="#94a3b8" stroke="#94a3b8" stroke-width="2" points="922.08,-254.45 926.8,-244.96 917.19,-249.43 922.08,-254.45"/>
</g>
<!-- platform:facebook -->
<g id="node11" class="node">
<title>platform:facebook</title>
<polygon fill="#1d4ed8" stroke="#1d4ed8" points="66,-36 0,-36 0,0 66,0 66,-36"/>
<text text-anchor="middle" x="33" y="-15.2" font-family="Helvetica,sans-Serif" font-size="11.00" fill="white">facebook</text>
</g>
<!-- vector:web -->
<g id="node13" class="node">
<title>vector:web</title>
<polygon fill="#0891b2" stroke="#0891b2" points="176,-83 122,-83 122,-47 176,-47 176,-83"/>
<text text-anchor="middle" x="149" y="-62.2" font-family="Helvetica,sans-Serif" font-size="11.00" fill="white">web</text>
</g>
<!-- platform:facebook&#45;&gt;vector:web -->
<g id="edge14" class="edge">
<title>platform:facebook&#45;&gt;vector:web</title>
<path fill="none" stroke="#94a3b8" stroke-width="2" d="M66.06,-31.22C80.54,-37.19 97.69,-44.26 112.55,-50.38"/>
<polygon fill="#94a3b8" stroke="#94a3b8" stroke-width="2" points="111.35,-53.68 121.93,-54.25 114.02,-47.21 111.35,-53.68"/>
</g>
<!-- technique:Fake government&#45;backed investment scheme via social media ads -->
<g id="node12" class="node">
<title>technique:Fake government&#45;backed investment scheme via social media ads</title>
<ellipse fill="#b91c1c" stroke="#b91c1c" cx="519.26" cy="-25" rx="230.12" ry="18"/>
<text text-anchor="middle" x="519.26" y="-22.2" font-family="Helvetica,sans-Serif" font-size="11.00" fill="white">Fake government&#45;backed investment scheme via social media ads</text>
</g>
<!-- technique:Fake government&#45;backed investment scheme via social media ads&#45;&gt;payment:card -->
<g id="edge16" class="edge">
<title>technique:Fake government&#45;backed investment scheme via social media ads&#45;&gt;payment:card</title>
<path fill="none" stroke="#94a3b8" stroke-width="2" d="M680.12,-37.93C730.25,-42.45 785.75,-47.93 836.53,-54 859.14,-56.7 884.46,-60.08 904.52,-62.84"/>
<polygon fill="#94a3b8" stroke="#94a3b8" stroke-width="2" points="904.11,-66.32 914.49,-64.23 905.07,-59.39 904.11,-66.32"/>
</g>
<!-- technique:Fake government&#45;backed investment scheme via social media ads&#45;&gt;payment:transfer_bancar -->
<g id="edge15" class="edge">
<title>technique:Fake government&#45;backed investment scheme via social media ads&#45;&gt;payment:transfer_bancar</title>
<path fill="none" stroke="#94a3b8" stroke-width="2" d="M613.27,-8.55C677.45,-2.65 761.06,-6.45 817.53,-52 860.31,-86.51 821.95,-125.73 854.53,-170 867.73,-187.94 887.96,-202.39 905.55,-212.61"/>
<polygon fill="#94a3b8" stroke="#94a3b8" stroke-width="2" points="904.02,-215.76 914.46,-217.56 907.42,-209.64 904.02,-215.76"/>
</g>
<!-- vector:web&#45;&gt;technique:Fake government&#45;backed investment scheme via social media ads -->
<g id="edge17" class="edge">
<title>vector:web&#45;&gt;technique:Fake government&#45;backed investment scheme via social media ads</title>
<path fill="none" stroke="#94a3b8" stroke-width="2" d="M176.21,-59.62C189.57,-57.02 206.1,-54.04 221,-52 260.05,-46.66 302.13,-42.11 342,-38.36"/>
<polygon fill="#94a3b8" stroke="#94a3b8" stroke-width="2" points="342.45,-41.83 352.09,-37.42 341.81,-34.86 342.45,-41.83"/>
</g>
<!-- technique:Fake official document impersonating multiple institutions to phish crypto holders -->
<g id="node21" class="node">
<title>technique:Fake official document impersonating multiple institutions to phish crypto holders</title>
<ellipse fill="#b91c1c" stroke="#b91c1c" cx="519.26" cy="-79" rx="280.65" ry="18"/>
<text text-anchor="middle" x="519.26" y="-76.2" font-family="Helvetica,sans-Serif" font-size="11.00" fill="white">Fake official document impersonating multiple institutions to phish crypto holders</text>
</g>
<!-- vector:web&#45;&gt;technique:Fake official document impersonating multiple institutions to phish crypto holders -->
<g id="edge18" class="edge">
<title>vector:web&#45;&gt;technique:Fake official document impersonating multiple institutions to phish crypto holders</title>
<path fill="none" stroke="#94a3b8" stroke-width="2" d="M176.19,-66C197.52,-66.81 230.02,-68.04 266.65,-69.43"/>
<polygon fill="#94a3b8" stroke="#94a3b8" stroke-width="2" points="266.96,-72.95 277.09,-69.83 267.23,-65.95 266.96,-72.95"/>
</g>
<!-- platform:telegram -->
<g id="node14" class="node">
<title>platform:telegram</title>
<polygon fill="#1d4ed8" stroke="#1d4ed8" points="66,-339 0,-339 0,-303 66,-303 66,-339"/>
<text text-anchor="middle" x="33" y="-318.2" font-family="Helvetica,sans-Serif" font-size="11.00" fill="white">telegram</text>
</g>
<!-- platform:telegram&#45;&gt;vector:whatsapp -->
<g id="edge19" class="edge">
<title>platform:telegram&#45;&gt;vector:whatsapp</title>
<path fill="none" stroke="#94a3b8" stroke-width="2" d="M66.06,-305.25C78.04,-299.37 91.84,-292.59 104.67,-286.29"/>
<polygon fill="#94a3b8" stroke="#94a3b8" stroke-width="2" points="106.36,-289.35 113.79,-281.8 103.27,-283.07 106.36,-289.35"/>
</g>
<!-- vector:tiktok -->
<g id="node16" class="node">
<title>vector:tiktok</title>
<polygon fill="#0891b2" stroke="#0891b2" points="176,-345 122,-345 122,-309 176,-309 176,-345"/>
<text text-anchor="middle" x="149" y="-324.2" font-family="Helvetica,sans-Serif" font-size="11.00" fill="white">tiktok</text>
</g>
<!-- platform:telegram&#45;&gt;vector:tiktok -->
<g id="edge20" class="edge">
<title>platform:telegram&#45;&gt;vector:tiktok</title>
<path fill="none" stroke="#94a3b8" stroke-width="2" d="M66.06,-322.69C80.26,-323.43 97.04,-324.32 111.7,-325.09"/>
<polygon fill="#94a3b8" stroke="#94a3b8" stroke-width="2" points="111.76,-328.6 121.93,-325.63 112.13,-321.61 111.76,-328.6"/>
</g>
<!-- technique:Fake trading platform with simulated profits, promoted via private social&#45;media groups&#45;&gt;payment:transfer_bancar -->
<g id="edge22" class="edge">
<title>technique:Fake trading platform with simulated profits, promoted via private social&#45;media groups&#45;&gt;payment:transfer_bancar</title>
<path fill="none" stroke="#94a3b8" stroke-width="2" d="M796.77,-288.38C810.29,-286.03 823.6,-283.25 836.53,-280 862.93,-273.35 890.64,-259.77 910.9,-248.43"/>
<polygon fill="#94a3b8" stroke="#94a3b8" stroke-width="2" points="912.71,-251.43 919.65,-243.42 909.23,-245.35 912.71,-251.43"/>
</g>
<!-- technique:Fake trading platform with simulated profits, promoted via private social&#45;media groups&#45;&gt;payment:crypto -->
<g id="edge21" class="edge">
<title>technique:Fake trading platform with simulated profits, promoted via private social&#45;media groups&#45;&gt;payment:crypto</title>
<path fill="none" stroke="#94a3b8" stroke-width="2" d="M781.88,-286.29C794.34,-281.27 806.31,-275.22 817.53,-268 845.48,-250.01 832.08,-227.52 854.53,-203 871.43,-184.53 895.01,-168.66 913.3,-157.89"/>
<polygon fill="#94a3b8" stroke="#94a3b8" stroke-width="2" points="915.12,-160.88 922.06,-152.88 911.64,-154.81 915.12,-160.88"/>
</g>
<!-- vector:tiktok&#45;&gt;technique:Fake trading platform with simulated profits, promoted via private social&#45;media groups -->
<g id="edge23" class="edge">
<title>vector:tiktok&#45;&gt;technique:Fake trading platform with simulated profits, promoted via private social&#45;media groups</title>
<path fill="none" stroke="#94a3b8" stroke-width="2" d="M176.19,-324.72C210.74,-321.72 274.6,-316.17 337.87,-310.68"/>
<polygon fill="#94a3b8" stroke="#94a3b8" stroke-width="2" points="338.35,-314.15 348.01,-309.79 337.75,-307.17 338.35,-314.15"/>
</g>
<!-- platform:web -->
<g id="node17" class="node">
<title>platform:web</title>
<polygon fill="#1d4ed8" stroke="#1d4ed8" points="60,-151 6,-151 6,-115 60,-115 60,-151"/>
<text text-anchor="middle" x="33" y="-130.2" font-family="Helvetica,sans-Serif" font-size="11.00" fill="white">web</text>
</g>
<!-- vector:facebook -->
<g id="node19" class="node">
<title>vector:facebook</title>
<polygon fill="#0891b2" stroke="#0891b2" points="182,-151 116,-151 116,-115 182,-115 182,-151"/>
<text text-anchor="middle" x="149" y="-130.2" font-family="Helvetica,sans-Serif" font-size="11.00" fill="white">facebook</text>
</g>
<!-- platform:web&#45;&gt;vector:facebook -->
<g id="edge24" class="edge">
<title>platform:web&#45;&gt;vector:facebook</title>
<path fill="none" stroke="#94a3b8" stroke-width="2" d="M60.15,-133C73.61,-133 90.36,-133 105.6,-133"/>
<polygon fill="#94a3b8" stroke="#94a3b8" stroke-width="2" points="105.86,-136.5 115.86,-133 105.86,-129.5 105.86,-136.5"/>
</g>
<!-- technique:Fake media&#45;branded ads promoting fictitious investment platforms -->
<g id="node18" class="node">
<title>technique:Fake media&#45;branded ads promoting fictitious investment platforms</title>
<ellipse fill="#b91c1c" stroke="#b91c1c" cx="519.26" cy="-133" rx="230.83" ry="18"/>
<text text-anchor="middle" x="519.26" y="-130.2" font-family="Helvetica,sans-Serif" font-size="11.00" fill="white">Fake media&#45;branded ads promoting fictitious investment platforms</text>
</g>
<!-- technique:Fake media&#45;branded ads promoting fictitious investment platforms&#45;&gt;payment:card -->
<g id="edge26" class="edge">
<title>technique:Fake media&#45;branded ads promoting fictitious investment platforms&#45;&gt;payment:card</title>
<path fill="none" stroke="#94a3b8" stroke-width="2" d="M704.66,-122.26C742.21,-118.39 781.3,-113.13 817.53,-106 850.44,-99.52 887.03,-87.66 911.8,-78.91"/>
<polygon fill="#94a3b8" stroke="#94a3b8" stroke-width="2" points="913.1,-82.16 921.32,-75.49 910.73,-75.57 913.1,-82.16"/>
</g>
<!-- technique:Fake media&#45;branded ads promoting fictitious investment platforms&#45;&gt;payment:transfer_bancar -->
<g id="edge25" class="edge">
<title>technique:Fake media&#45;branded ads promoting fictitious investment platforms&#45;&gt;payment:transfer_bancar</title>
<path fill="none" stroke="#94a3b8" stroke-width="2" d="M746.55,-136.18C771.22,-141.58 795.38,-149.26 817.53,-160 827.99,-165.08 826.14,-172.14 835.53,-179 855.39,-193.52 880.03,-205.7 900.52,-214.51"/>
<polygon fill="#94a3b8" stroke="#94a3b8" stroke-width="2" points="899.32,-217.8 909.9,-218.44 902.03,-211.34 899.32,-217.8"/>
</g>
<!-- vector:facebook&#45;&gt;technique:Fake media&#45;branded ads promoting fictitious investment platforms -->
<g id="edge27" class="edge">
<title>vector:facebook&#45;&gt;technique:Fake media&#45;branded ads promoting fictitious investment platforms</title>
<path fill="none" stroke="#94a3b8" stroke-width="2" d="M182.04,-133C205.57,-133 239.94,-133 277.82,-133"/>
<polygon fill="#94a3b8" stroke="#94a3b8" stroke-width="2" points="278.06,-136.5 288.06,-133 278.06,-129.5 278.06,-136.5"/>
</g>
<!-- platform:email -->
<g id="node20" class="node">
<title>platform:email</title>
<polygon fill="#1d4ed8" stroke="#1d4ed8" points="60,-90 6,-90 6,-54 60,-54 60,-90"/>
<text text-anchor="middle" x="33" y="-69.2" font-family="Helvetica,sans-Serif" font-size="11.00" fill="white">email</text>
</g>
<!-- platform:email&#45;&gt;vector:web -->
<g id="edge28" class="edge">
<title>platform:email&#45;&gt;vector:web</title>
<path fill="none" stroke="#94a3b8" stroke-width="2" d="M60.15,-70.39C75.51,-69.45 95.13,-68.25 111.93,-67.21"/>
<polygon fill="#94a3b8" stroke="#94a3b8" stroke-width="2" points="112.2,-70.7 121.97,-66.6 111.77,-63.72 112.2,-70.7"/>
</g>
<!-- technique:Fake official document impersonating multiple institutions to phish crypto holders&#45;&gt;payment:crypto -->
<g id="edge29" class="edge">
<title>technique:Fake official document impersonating multiple institutions to phish crypto holders&#45;&gt;payment:crypto</title>
<path fill="none" stroke="#94a3b8" stroke-width="2" d="M720.11,-91.61C752.82,-95.26 786.24,-99.96 817.53,-106 849.03,-112.08 883.98,-122.95 908.65,-131.33"/>
<polygon fill="#94a3b8" stroke="#94a3b8" stroke-width="2" points="907.64,-134.68 918.23,-134.64 909.92,-128.07 907.64,-134.68"/>
</g>
</g>
</svg>
